<?xml version="1.0" encoding="UTF-8"?>
<svg xmlns="http://www.w3.org/2000/svg" xmlns:xlink="http://www.w3.org/1999/xlink" width="200px" height="222px" viewBox="0 0 200 222" version="1.1">
<g id="surface1">
<path style=" stroke:none;fill-rule:nonzero;fill:rgb(100%,100%,100%);fill-opacity:1;" d="M 33.628906 110.496094 C 33.652344 111.226562 33.703125 111.835938 33.726562 112.492188 C 33.847656 113.660156 33.945312 114.804688 34.089844 115.972656 C 34.140625 116.339844 34.238281 116.65625 34.359375 116.996094 C 34.820312 118.1875 35.84375 118.457031 36.796875 117.53125 C 37.0625 117.289062 37.304688 117.019531 37.5 116.703125 C 37.964844 115.972656 38.453125 115.195312 38.839844 114.441406 C 39.476562 113.222656 40.011719 111.984375 40.644531 110.742188 C 40.9375 110.207031 41.230469 109.695312 41.546875 109.183594 C 41.691406 108.890625 41.59375 108.625 41.253906 108.597656 C 40.960938 108.550781 40.742188 108.695312 40.570312 108.917969 C 40.375 109.183594 40.230469 109.425781 40.082031 109.71875 C 39.132812 111.398438 38.234375 113.125 37.28125 114.804688 C 36.988281 115.316406 36.648438 115.828125 36.28125 116.289062 C 36.136719 116.484375 35.96875 116.628906 35.773438 116.800781 C 35.308594 115.972656 35.089844 107.140625 35.039062 106.433594 C 34.894531 104.875 34.796875 103.34375 34.652344 101.808594 C 34.578125 101.03125 34.359375 100.351562 33.992188 99.691406 C 33.410156 98.769531 32.484375 98.671875 31.800781 99.425781 C 31.4375 99.863281 31.09375 100.351562 30.851562 100.8125 C 30.191406 102.027344 29.707031 103.292969 29.339844 104.609375 C 28.585938 107.089844 28.074219 109.621094 27.707031 112.128906 C 27.417969 113.855469 27.292969 115.558594 27.515625 117.289062 C 27.585938 117.675781 27.707031 118.089844 27.855469 118.457031 C 27.878906 118.554688 28.074219 118.675781 28.171875 118.699219 C 28.367188 118.699219 28.390625 118.527344 28.390625 118.382812 C 28.464844 117.898438 28.511719 117.433594 28.585938 116.949219 C 28.683594 115.828125 28.757812 114.683594 28.878906 113.566406 C 28.902344 113.34375 28.976562 113.199219 29.195312 113.078125 C 29.683594 112.835938 30.070312 112.542969 30.507812 112.273438 C 31.53125 111.691406 32.53125 111.15625 33.628906 110.496094 Z M 32.773438 100.496094 C 32.847656 100.859375 32.996094 101.25 33.042969 101.664062 C 33.140625 102.855469 33.261719 104.097656 33.335938 105.3125 C 33.433594 106.507812 33.480469 107.722656 33.554688 108.917969 C 33.578125 109.207031 33.480469 109.402344 33.214844 109.5 C 32.628906 109.839844 32.019531 110.15625 31.386719 110.496094 C 30.777344 110.816406 30.121094 111.179688 29.484375 111.519531 C 29.414062 111.542969 29.339844 111.59375 29.195312 111.667969 C 29.242188 111.519531 29.195312 111.398438 29.242188 111.300781 C 29.753906 108.597656 30.265625 105.851562 31.242188 103.269531 C 31.507812 102.492188 31.898438 101.761719 32.265625 101.007812 C 32.335938 100.8125 32.53125 100.640625 32.679688 100.445312 C 32.703125 100.445312 32.75 100.496094 32.773438 100.496094 Z M 32.773438 100.496094 "/>
<path style=" stroke:none;fill-rule:nonzero;fill:rgb(100%,100%,100%);fill-opacity:1;" d="M 51.875 108.625 C 51.628906 108.476562 51.289062 108.597656 51.144531 108.84375 C 49.730469 111.324219 48.4375 113.125 47.464844 114.320312 C 47.097656 114.734375 46.757812 115.097656 46.394531 115.460938 C 46.171875 115.707031 45.882812 115.925781 45.589844 116.121094 C 45.273438 116.339844 45.003906 116.265625 44.929688 115.828125 C 44.90625 115.488281 44.90625 115.171875 44.980469 114.828125 C 45.078125 114.097656 45.929688 111.375 46.660156 110.15625 C 46.660156 110.085938 46.6875 110.058594 46.734375 110.011719 L 46.6875 110.011719 C 46.6875 109.988281 46.734375 109.9375 46.734375 109.914062 C 47.050781 108.820312 46.589844 108.257812 45.492188 108.378906 C 45.078125 108.40625 44.6875 108.453125 44.273438 108.527344 C 44.175781 108.527344 44.101562 108.527344 43.980469 108.527344 C 44.101562 108.1875 44.199219 107.894531 44.25 107.601562 C 44.421875 106.796875 44.613281 105.996094 44.394531 105.191406 C 44.128906 104.21875 43.226562 103.855469 42.375 104.4375 C 41.253906 105.242188 40.621094 106.335938 40.546875 107.722656 C 40.523438 108.625 41.058594 109.28125 41.933594 109.546875 C 42.15625 109.621094 43.398438 109.71875 43.542969 109.695312 C 43.6875 109.695312 45.078125 109.5 45.078125 109.5 C 45.222656 109.476562 45.371094 109.476562 45.515625 109.476562 C 45.515625 109.546875 45.371094 109.769531 45.371094 109.769531 L 44.90625 110.9375 C 44.492188 111.765625 44.175781 112.617188 43.957031 113.515625 L 43.957031 113.492188 C 43.8125 114.097656 43.6875 114.734375 43.6875 115.339844 C 43.6875 115.777344 43.761719 116.21875 44.03125 116.628906 C 44.46875 117.3125 45.199219 117.53125 45.929688 117.140625 C 46.515625 116.875 47.636719 116.046875 49.730469 113.054688 C 50.996094 111.179688 52.070312 109.402344 52.070312 109.355469 C 52.214844 109.109375 52.140625 108.769531 51.875 108.625 Z M 42.664062 108.527344 C 42.519531 108.476562 42.300781 108.453125 42.128906 108.40625 C 41.789062 108.308594 41.617188 108.039062 41.617188 107.722656 C 41.691406 106.726562 42.082031 105.921875 42.933594 105.339844 C 42.957031 105.339844 43.007812 105.3125 43.03125 105.3125 C 43.082031 105.3125 43.105469 105.3125 43.152344 105.339844 C 43.445312 105.921875 43.226562 107.527344 42.664062 108.527344 Z M 42.664062 108.527344 "/>
<path style=" stroke:none;fill-rule:nonzero;fill:rgb(100%,100%,100%);fill-opacity:1;" d="M 66.757812 108.550781 C 66.6875 108.550781 65.566406 108.476562 64.128906 109.039062 C 64.128906 108.917969 64.105469 108.820312 64.105469 108.820312 C 64.054688 108.746094 63.980469 108.671875 63.980469 108.597656 C 63.398438 107.382812 62.277344 106.847656 60.960938 107.089844 C 60.304688 107.238281 59.671875 107.527344 59.15625 107.96875 C 58.476562 108.550781 57.914062 109.207031 57.453125 109.988281 C 56.746094 111.035156 56.285156 112.203125 55.867188 113.441406 C 55.84375 113.417969 55.796875 113.34375 55.796875 113.273438 C 55.40625 112.175781 55.1875 111.035156 54.96875 109.914062 C 54.894531 109.546875 54.992188 109.328125 55.261719 109.0625 C 57.308594 107.140625 58.988281 104.949219 60.375 102.492188 C 60.886719 101.542969 61.351562 100.570312 61.617188 99.496094 C 61.789062 98.890625 61.789062 98.257812 61.546875 97.648438 C 61.203125 96.871094 60.621094 96.480469 59.792969 96.480469 C 58.988281 96.480469 58.28125 96.796875 57.625 97.28125 C 56.429688 98.160156 55.503906 99.277344 54.847656 100.640625 C 54.117188 102.175781 53.824219 103.804688 53.652344 105.535156 C 53.578125 106.335938 53.578125 107.140625 53.601562 107.941406 C 53.601562 107.941406 53.601562 107.941406 53.601562 107.96875 C 53.652344 108.1875 53.75 109.5 53.96875 110.667969 C 54.335938 112.25 54.847656 113.785156 55.578125 115.246094 C 55.699219 115.414062 55.796875 115.632812 55.941406 115.828125 C 56.234375 116.144531 56.671875 116.046875 56.746094 115.609375 C 56.820312 115.414062 56.746094 115.195312 56.746094 114.976562 C 56.722656 114.804688 56.648438 114.609375 56.671875 114.441406 C 56.820312 113.441406 57.234375 112.542969 57.671875 111.617188 C 58.109375 110.71875 58.648438 109.839844 59.425781 109.109375 C 59.890625 108.671875 60.398438 108.308594 61.035156 108.113281 C 62.082031 107.871094 62.8125 108.332031 63.082031 109.425781 C 62.933594 109.546875 62.789062 109.644531 62.640625 109.71875 C 61.351562 110.59375 60.253906 111.667969 59.378906 112.90625 C 59.085938 113.296875 58.867188 113.734375 58.648438 114.171875 C 58.425781 114.660156 58.355469 115.195312 58.425781 115.707031 C 58.621094 117.167969 59.960938 117.871094 61.179688 117.214844 C 61.617188 116.949219 62.007812 116.65625 62.300781 116.265625 C 62.640625 115.828125 62.933594 115.339844 63.179688 114.828125 C 63.835938 113.371094 64.25 111.835938 64.273438 110.230469 C 64.273438 110.207031 64.273438 110.15625 64.273438 110.132812 C 65.566406 109.574219 66.660156 109.621094 66.6875 109.621094 C 66.976562 109.644531 67.246094 109.425781 67.246094 109.136719 C 67.269531 108.84375 67.050781 108.597656 66.757812 108.550781 Z M 54.820312 107.894531 C 54.773438 107.871094 54.773438 107.820312 54.773438 107.796875 C 54.699219 105.484375 54.96875 103.222656 55.917969 101.105469 C 56.453125 99.910156 57.183594 98.839844 58.257812 98.039062 C 58.621094 97.746094 59.0625 97.527344 59.523438 97.453125 C 60.179688 97.308594 60.621094 97.601562 60.742188 98.257812 C 60.765625 98.523438 60.765625 98.816406 60.691406 99.058594 C 60.546875 99.621094 60.328125 100.15625 60.109375 100.664062 C 59.597656 101.835938 58.9375 102.976562 58.132812 104 C 57.183594 105.242188 56.164062 106.410156 55.1875 107.652344 C 55.113281 107.746094 54.992188 107.871094 54.917969 108.015625 C 54.894531 107.96875 54.847656 107.941406 54.820312 107.894531 Z M 63.007812 111.59375 C 62.789062 112.785156 62.421875 114.003906 61.789062 115.046875 C 61.496094 115.535156 61.203125 115.925781 60.765625 116.21875 C 60.011719 116.703125 59.523438 116.289062 59.378906 115.632812 C 59.351562 115.414062 59.378906 115.195312 59.378906 115.023438 C 59.425781 114.828125 59.5 114.609375 59.597656 114.441406 C 60.375 112.859375 61.617188 111.691406 63.007812 110.667969 C 63.03125 110.667969 63.082031 110.667969 63.152344 110.71875 C 63.082031 111.007812 63.082031 111.300781 63.007812 111.59375 Z M 63.007812 111.59375 "/>
<path style=" stroke:none;fill-rule:nonzero;fill:rgb(100%,100%,100%);fill-opacity:1;" d="M 81.59375 108.597656 C 81.351562 108.453125 81.011719 108.550781 80.863281 108.820312 C 79.449219 111.300781 78.160156 113.078125 77.183594 114.296875 C 76.84375 114.660156 76.480469 115.046875 76.113281 115.414062 C 75.894531 115.679688 75.652344 115.851562 75.359375 116.070312 C 74.992188 116.289062 74.726562 116.191406 74.652344 115.777344 C 74.628906 115.460938 74.652344 115.121094 74.699219 114.804688 C 74.847656 113.855469 75.140625 112.933594 75.503906 112.054688 C 76.113281 110.667969 76.769531 109.28125 77.40625 107.894531 C 77.550781 107.601562 77.722656 107.285156 77.84375 106.945312 C 77.988281 106.578125 77.917969 106.265625 77.695312 106.117188 C 77.429688 105.972656 77.136719 106.042969 76.894531 106.335938 C 76.671875 106.578125 76.453125 106.796875 76.234375 107.066406 C 76.164062 107.164062 76.039062 107.238281 75.941406 107.359375 C 75.210938 105.605469 73.261719 105.339844 72.09375 105.921875 C 71.65625 106.140625 71.21875 106.359375 70.851562 106.652344 C 69.144531 108.015625 68.195312 109.792969 67.855469 111.957031 C 67.757812 112.566406 67.78125 113.222656 68.074219 113.855469 C 68.488281 114.683594 69.242188 114.976562 70.097656 114.515625 C 70.535156 114.246094 70.972656 113.953125 71.339844 113.589844 C 72.386719 112.566406 73.410156 111.519531 74.480469 110.449219 C 74.628906 110.351562 74.726562 110.207031 74.871094 110.058594 C 74.871094 110.230469 74.796875 110.425781 74.773438 110.570312 C 74.480469 111.300781 74.140625 112.054688 73.898438 112.835938 C 73.605469 113.636719 73.457031 114.464844 73.457031 115.316406 C 73.457031 115.753906 73.53125 116.191406 73.75 116.582031 C 74.1875 117.289062 74.945312 117.507812 75.675781 117.09375 C 76.234375 116.851562 77.355469 116 79.449219 113.003906 C 80.765625 111.15625 81.789062 109.328125 81.8125 109.328125 C 81.9375 109.0625 81.863281 108.746094 81.59375 108.597656 Z M 70.679688 112.714844 C 70.265625 113.054688 69.878906 113.371094 69.390625 113.566406 C 69.144531 113.417969 69.074219 113.199219 69.074219 112.933594 C 69.074219 112.640625 69.023438 112.347656 69.074219 112.105469 C 69.390625 110.425781 70.097656 108.964844 71.4375 107.871094 C 71.777344 107.578125 72.167969 107.308594 72.582031 107.140625 C 73.484375 106.703125 74.578125 107.164062 74.871094 108.039062 C 74.917969 108.164062 74.992188 108.234375 75.015625 108.332031 C 74.992188 108.378906 74.945312 108.40625 74.917969 108.453125 C 73.554688 109.9375 72.214844 111.398438 70.679688 112.714844 Z M 70.679688 112.714844 "/>
<path style=" stroke:none;fill-rule:nonzero;fill:rgb(100%,100%,100%);fill-opacity:1;" d="M 89.464844 108.671875 C 89.242188 108.476562 88.925781 108.476562 88.707031 108.695312 L 85.199219 112.640625 C 85.199219 112.640625 85.152344 112.6875 85.078125 112.761719 L 84.761719 108.308594 C 84.710938 107.894531 84.347656 107.601562 83.957031 107.652344 C 83.542969 107.652344 83.226562 108.015625 83.25 108.378906 L 83.617188 113.785156 C 83.542969 113.878906 83.445312 113.953125 83.375 114.003906 C 82.789062 114.585938 82.300781 115.269531 81.839844 115.925781 C 80.960938 117.070312 80.375 118.308594 80.15625 119.699219 C 79.960938 120.890625 80.035156 122.035156 80.472656 123.152344 C 80.667969 123.640625 80.914062 124.03125 81.328125 124.371094 C 81.9375 124.90625 82.640625 124.953125 83.300781 124.394531 C 83.542969 124.175781 83.761719 123.933594 83.957031 123.640625 C 84.492188 122.714844 84.933594 121.742188 85.078125 120.671875 C 85.199219 119.796875 85.222656 118.894531 85.273438 117.96875 C 85.273438 116.703125 85.273438 115.460938 85.222656 114.222656 L 89.511719 109.402344 C 89.683594 109.207031 89.683594 108.84375 89.464844 108.671875 Z M 83.664062 120.160156 C 83.664062 121.109375 83.324219 122.035156 82.957031 122.859375 C 82.886719 123.007812 82.8125 123.152344 82.738281 123.273438 C 82.375 123.785156 82.082031 123.808594 81.714844 123.300781 C 81.328125 122.761719 81.179688 122.105469 81.132812 121.449219 C 81.035156 120.5 81.203125 119.574219 81.570312 118.699219 C 82.007812 117.578125 82.714844 116.582031 83.519531 115.679688 C 83.542969 115.632812 83.59375 115.632812 83.664062 115.609375 C 83.664062 115.679688 83.691406 115.753906 83.691406 115.777344 C 83.691406 117.238281 83.691406 118.699219 83.664062 120.160156 Z M 82.8125 105.023438 C 82.8125 105.558594 83.152344 105.972656 83.664062 105.972656 C 84.203125 105.996094 84.710938 105.535156 84.710938 105.023438 C 84.710938 104.460938 84.273438 104.097656 83.59375 104.074219 C 83.179688 104.023438 82.859375 104.4375 82.8125 105.023438 Z M 82.8125 105.023438 "/>
<path style=" stroke:none;fill-rule:nonzero;fill:rgb(100%,100%,100%);fill-opacity:1;" d="M 104.90625 110.496094 C 104.933594 111.226562 104.980469 111.835938 105.003906 112.492188 C 105.128906 113.660156 105.226562 114.804688 105.371094 115.972656 C 105.421875 116.339844 105.515625 116.65625 105.640625 116.996094 C 106.101562 118.1875 107.125 118.457031 108.074219 117.53125 C 108.34375 117.289062 108.585938 117.019531 108.78125 116.703125 C 109.246094 115.972656 109.730469 115.195312 110.121094 114.441406 C 110.753906 113.222656 111.289062 111.984375 111.921875 110.742188 C 112.21875 110.207031 112.507812 109.695312 112.824219 109.183594 C 112.972656 108.890625 112.875 108.625 112.535156 108.597656 C 112.242188 108.550781 112.019531 108.695312 111.851562 108.917969 C 111.65625 109.183594 111.511719 109.425781 111.363281 109.71875 C 110.414062 111.398438 109.511719 113.125 108.5625 114.804688 C 108.269531 115.316406 107.929688 115.828125 107.5625 116.289062 C 107.417969 116.484375 107.246094 116.628906 107.050781 116.800781 C 106.589844 115.972656 106.371094 107.140625 106.320312 106.433594 C 106.175781 104.875 106.078125 103.34375 105.929688 101.808594 C 105.859375 101.03125 105.640625 100.351562 105.273438 99.691406 C 104.6875 98.769531 103.761719 98.671875 103.082031 99.425781 C 102.714844 99.863281 102.375 100.351562 102.132812 100.8125 C 101.472656 102.027344 100.984375 103.292969 100.621094 104.609375 C 99.867188 107.089844 99.355469 109.621094 98.988281 112.128906 C 98.695312 113.855469 98.574219 115.558594 98.792969 117.289062 C 98.867188 117.675781 98.988281 118.089844 99.132812 118.457031 C 99.160156 118.554688 99.355469 118.675781 99.453125 118.699219 C 99.648438 118.699219 99.671875 118.527344 99.671875 118.382812 C 99.742188 117.898438 99.792969 117.433594 99.867188 116.949219 C 99.960938 115.828125 100.035156 114.683594 100.15625 113.566406 C 100.183594 113.34375 100.253906 113.199219 100.472656 113.078125 C 100.960938 112.835938 101.351562 112.542969 101.789062 112.273438 C 102.8125 111.691406 103.8125 111.15625 104.90625 110.496094 Z M 104.054688 100.496094 C 104.128906 100.859375 104.273438 101.25 104.324219 101.664062 C 104.421875 102.855469 104.542969 104.097656 104.617188 105.3125 C 104.714844 106.507812 104.761719 107.722656 104.835938 108.917969 C 104.859375 109.207031 104.761719 109.402344 104.492188 109.5 C 103.910156 109.839844 103.300781 110.15625 102.667969 110.496094 C 102.058594 110.816406 101.398438 111.179688 100.765625 111.519531 C 100.695312 111.542969 100.621094 111.59375 100.472656 111.667969 C 100.523438 111.519531 100.472656 111.398438 100.523438 111.300781 C 101.035156 108.597656 101.546875 105.851562 102.519531 103.269531 C 102.789062 102.492188 103.179688 101.761719 103.542969 101.007812 C 103.617188 100.8125 103.8125 100.640625 103.957031 100.445312 C 103.980469 100.445312 104.03125 100.496094 104.054688 100.496094 Z M 104.054688 100.496094 "/>
<path style=" stroke:none;fill-rule:nonzero;fill:rgb(100%,100%,100%);fill-opacity:1;" d="M 128.050781 108.597656 C 127.808594 108.476562 127.464844 108.597656 127.367188 108.890625 C 127.367188 108.890625 126.417969 111.082031 125.25 113.148438 C 123.15625 116.921875 122.351562 116.65625 122.351562 116.628906 C 122.058594 116.4375 122.132812 115.679688 122.132812 115.488281 C 122.277344 114.003906 122.351562 112.492188 122.496094 111.007812 C 122.644531 109.792969 122.863281 108.625 123.007812 107.433594 C 123.058594 106.992188 123.058594 106.507812 122.984375 106.066406 C 122.835938 105.386719 122.253906 105.167969 121.667969 105.558594 C 121.328125 105.777344 121.011719 106.042969 120.71875 106.335938 C 119.132812 107.941406 117.671875 109.644531 116.480469 111.542969 C 116.40625 111.667969 116.359375 111.738281 116.285156 111.835938 C 116.261719 111.835938 116.210938 111.8125 116.1875 111.8125 C 116.1875 111.667969 116.136719 111.519531 116.136719 111.375 C 116.1875 110.207031 116.1875 109.039062 116.1875 107.894531 C 116.1875 107.527344 116.1875 107.164062 116.1875 106.796875 C 116.136719 106.578125 116.066406 106.359375 115.992188 106.140625 C 115.847656 105.851562 115.625 105.679688 115.335938 105.632812 C 114.96875 105.632812 114.726562 105.777344 114.578125 106.066406 C 114.457031 106.289062 114.382812 106.507812 114.359375 106.726562 C 114.289062 107.140625 114.214844 107.527344 114.214844 107.941406 C 114.019531 109.988281 114.066406 112.03125 114.652344 114.027344 C 114.726562 114.296875 114.796875 114.539062 114.945312 114.757812 C 115.261719 115.246094 115.894531 115.269531 116.285156 114.828125 C 116.40625 114.660156 116.503906 114.464844 116.578125 114.296875 C 117.601562 111.667969 119.328125 109.476562 121.230469 107.433594 C 121.304688 107.359375 121.375 107.285156 121.523438 107.164062 C 121.472656 107.457031 121.449219 107.652344 121.375 107.871094 C 120.816406 110.230469 120.449219 112.640625 120.570312 115.097656 C 120.644531 117.070312 121.667969 117.675781 122.398438 117.726562 C 123.421875 117.726562 124.664062 116.410156 126.199219 113.660156 C 127.367188 111.542969 128.320312 109.328125 128.34375 109.28125 C 128.464844 109.039062 128.320312 108.695312 128.050781 108.597656 Z M 128.050781 108.597656 "/>
<path style=" stroke:none;fill-rule:nonzero;fill:rgb(100%,100%,100%);fill-opacity:1;" d="M 138.769531 108.820312 C 138.625 108.550781 138.332031 108.453125 138.039062 108.550781 C 135.675781 109.695312 134.945312 110.59375 134.214844 111.082031 L 134.066406 110.863281 C 133.335938 110.15625 132.460938 109.988281 132.460938 109.988281 C 132.386719 109.9375 132.3125 109.914062 132.242188 109.867188 C 132.191406 109.867188 132.167969 109.839844 132.117188 109.839844 C 132.09375 109.792969 132.046875 109.792969 132.019531 109.769531 C 131.4375 109.5 130.804688 109.136719 130.730469 108.164062 C 130.707031 107.675781 131.023438 107.089844 131.609375 106.628906 C 132.191406 106.140625 132.921875 105.851562 133.359375 105.972656 C 133.484375 105.996094 133.507812 106.042969 133.507812 106.066406 C 133.652344 106.359375 133.359375 107.164062 133.140625 107.601562 C 132.996094 107.871094 133.117188 108.1875 133.359375 108.332031 C 133.628906 108.476562 133.921875 108.378906 134.066406 108.113281 C 134.214844 107.871094 134.871094 106.507812 134.457031 105.632812 C 134.3125 105.265625 134.019531 105.046875 133.628906 104.949219 C 132.851562 104.753906 131.800781 105.09375 130.925781 105.824219 C 130.074219 106.554688 129.632812 107.433594 129.683594 108.234375 C 129.828125 109.914062 131.070312 110.496094 131.535156 110.71875 L 131.65625 110.789062 C 131.679688 110.789062 131.753906 110.816406 131.828125 110.863281 C 132.242188 111.035156 132.679688 111.253906 133.042969 111.59375 C 132.167969 112.25 131.386719 112.835938 131.09375 113.078125 C 130.195312 113.929688 128.734375 115.679688 128.953125 116.996094 C 129.050781 117.457031 129.390625 117.871094 129.902344 118.042969 C 129.902344 118.042969 129.925781 118.042969 129.925781 118.089844 C 130.21875 118.1875 130.558594 118.238281 130.851562 118.238281 C 131 118.238281 131.09375 118.238281 131.242188 118.1875 C 132.3125 118.117188 133.800781 117.507812 134.675781 115.046875 C 135.1875 113.710938 135.117188 112.6875 134.824219 111.957031 C 135.457031 111.445312 136.261719 110.570312 138.527344 109.546875 C 138.769531 109.402344 138.890625 109.109375 138.769531 108.820312 Z M 133.554688 114.027344 C 133.191406 115.488281 132.535156 116.507812 131.679688 116.949219 C 131.21875 117.214844 130.730469 117.238281 130.269531 117.070312 C 130.074219 116.996094 130 116.875 130 116.777344 C 129.902344 116.191406 130.707031 114.878906 131.800781 113.878906 C 132.09375 113.636719 132.777344 113.078125 133.582031 112.492188 C 133.703125 112.90625 133.726562 113.417969 133.554688 114.027344 Z M 133.554688 114.027344 "/>
<path style=" stroke:none;fill-rule:nonzero;fill:rgb(100%,100%,100%);fill-opacity:1;" d="M 153.070312 108.597656 C 152.824219 108.453125 152.484375 108.550781 152.339844 108.820312 C 150.925781 111.300781 149.632812 113.078125 148.660156 114.296875 C 148.320312 114.660156 147.953125 115.046875 147.585938 115.414062 C 147.367188 115.679688 147.125 115.851562 146.832031 116.070312 C 146.46875 116.289062 146.199219 116.191406 146.125 115.777344 C 146.101562 115.460938 146.125 115.121094 146.175781 114.804688 C 146.320312 113.855469 146.613281 112.933594 146.980469 112.054688 C 147.585938 110.667969 148.246094 109.28125 148.878906 107.894531 C 149.027344 107.601562 149.195312 107.285156 149.316406 106.945312 C 149.464844 106.578125 149.390625 106.265625 149.171875 106.117188 C 148.902344 105.972656 148.609375 106.042969 148.367188 106.335938 C 148.148438 106.578125 147.929688 106.796875 147.710938 107.066406 C 147.636719 107.164062 147.515625 107.238281 147.417969 107.359375 C 146.6875 105.605469 144.738281 105.339844 143.570312 105.921875 C 143.128906 106.140625 142.691406 106.359375 142.328125 106.652344 C 140.621094 108.015625 139.671875 109.792969 139.328125 111.957031 C 139.230469 112.566406 139.257812 113.222656 139.546875 113.855469 C 139.964844 114.683594 140.71875 114.976562 141.570312 114.515625 C 142.007812 114.246094 142.449219 113.953125 142.8125 113.589844 C 143.859375 112.566406 144.882812 111.519531 145.957031 110.449219 C 146.101562 110.351562 146.199219 110.207031 146.34375 110.058594 C 146.34375 110.230469 146.273438 110.425781 146.25 110.570312 C 145.957031 111.300781 145.617188 112.054688 145.371094 112.835938 C 145.078125 113.636719 144.933594 114.464844 144.933594 115.316406 C 144.933594 115.753906 145.007812 116.191406 145.226562 116.582031 C 145.664062 117.289062 146.417969 117.507812 147.148438 117.09375 C 147.710938 116.851562 148.832031 116 150.925781 113.003906 C 152.242188 111.15625 153.265625 109.328125 153.289062 109.328125 C 153.410156 109.0625 153.335938 108.746094 153.070312 108.597656 Z M 142.15625 112.714844 C 141.742188 113.054688 141.351562 113.371094 140.863281 113.566406 C 140.621094 113.417969 140.546875 113.199219 140.546875 112.933594 C 140.546875 112.640625 140.5 112.347656 140.546875 112.105469 C 140.863281 110.425781 141.570312 108.964844 142.910156 107.871094 C 143.253906 107.578125 143.640625 107.308594 144.054688 107.140625 C 144.957031 106.703125 146.054688 107.164062 146.34375 108.039062 C 146.394531 108.164062 146.46875 108.234375 146.492188 108.332031 C 146.46875 108.378906 146.417969 108.40625 146.394531 108.453125 C 145.03125 109.9375 143.691406 111.398438 142.15625 112.714844 Z M 142.15625 112.714844 "/>
<path style=" stroke:none;fill-rule:nonzero;fill:rgb(100%,100%,100%);fill-opacity:1;" d="M 163.714844 108.625 C 163.472656 108.476562 163.128906 108.597656 162.984375 108.84375 C 161.570312 111.324219 160.28125 113.125 159.304688 114.320312 C 158.941406 114.734375 158.597656 115.097656 158.234375 115.460938 C 158.015625 115.707031 157.722656 115.925781 157.429688 116.121094 C 157.113281 116.339844 156.84375 116.265625 156.773438 115.828125 C 156.75 115.488281 156.75 115.171875 156.820312 114.828125 C 156.917969 114.097656 157.769531 111.375 158.5 110.15625 C 158.5 110.085938 158.527344 110.058594 158.574219 110.011719 L 158.527344 110.011719 C 158.527344 109.988281 158.574219 109.9375 158.574219 109.914062 C 158.890625 108.820312 158.429688 108.257812 157.332031 108.378906 C 156.917969 108.40625 156.527344 108.453125 156.113281 108.527344 C 156.015625 108.527344 155.945312 108.527344 155.820312 108.527344 C 155.945312 108.1875 156.042969 107.894531 156.089844 107.601562 C 156.261719 106.796875 156.457031 105.996094 156.234375 105.191406 C 155.96875 104.21875 155.066406 103.855469 154.214844 104.4375 C 153.09375 105.242188 152.460938 106.335938 152.386719 107.722656 C 152.363281 108.625 152.898438 109.28125 153.777344 109.546875 C 153.996094 109.621094 155.238281 109.71875 155.382812 109.695312 C 155.53125 109.695312 156.917969 109.5 156.917969 109.5 C 157.0625 109.476562 157.210938 109.476562 157.355469 109.476562 C 157.355469 109.546875 157.210938 109.769531 157.210938 109.769531 L 156.75 110.9375 C 156.332031 111.765625 156.015625 112.617188 155.796875 113.515625 L 155.796875 113.492188 C 155.652344 114.097656 155.53125 114.734375 155.53125 115.339844 C 155.53125 115.777344 155.601562 116.21875 155.871094 116.628906 C 156.308594 117.3125 157.039062 117.53125 157.769531 117.140625 C 158.355469 116.875 159.476562 116.046875 161.570312 113.054688 C 162.839844 111.179688 163.910156 109.402344 163.910156 109.355469 C 164.054688 109.109375 163.984375 108.769531 163.714844 108.625 Z M 154.507812 108.527344 C 154.359375 108.476562 154.140625 108.453125 153.96875 108.40625 C 153.628906 108.308594 153.460938 108.039062 153.460938 107.722656 C 153.53125 106.726562 153.921875 105.921875 154.773438 105.339844 C 154.796875 105.339844 154.847656 105.3125 154.871094 105.3125 C 154.921875 105.3125 154.945312 105.3125 154.992188 105.339844 C 155.285156 105.921875 155.066406 107.527344 154.507812 108.527344 Z M 154.507812 108.527344 "/>
<path style=" stroke:none;fill-rule:nonzero;fill:rgb(100%,100%,100%);fill-opacity:1;" d="M 167.125 115.269531 C 167.027344 114.953125 166.90625 114.757812 166.882812 114.539062 C 166.832031 114.027344 166.761719 113.492188 166.808594 112.980469 C 166.832031 112.175781 166.90625 111.375 167.027344 110.570312 C 167.101562 109.644531 167.199219 108.746094 167.050781 107.820312 C 167.027344 107.527344 166.882812 107.285156 166.589844 107.214844 C 166.296875 107.140625 166.003906 107.238281 165.808594 107.578125 C 165.664062 107.871094 165.566406 108.164062 165.519531 108.453125 C 165.273438 110.085938 165.203125 111.765625 165.273438 113.441406 C 165.273438 114.074219 165.421875 114.757812 165.640625 115.339844 C 166.03125 116.582031 167.246094 116.921875 168.269531 116.070312 C 168.636719 115.777344 168.953125 115.460938 169.292969 115.121094 C 170.976562 113.34375 172.289062 111.300781 173.484375 109.183594 C 173.53125 109.136719 173.558594 109.0625 173.558594 108.988281 C 173.679688 108.746094 173.484375 108.476562 173.191406 108.527344 C 173.019531 108.550781 172.800781 108.671875 172.679688 108.820312 C 172.460938 108.988281 172.289062 109.257812 172.144531 109.476562 C 171.4375 110.425781 170.753906 111.398438 170.050781 112.347656 C 169.390625 113.222656 168.636719 114.074219 167.785156 114.804688 C 167.613281 114.953125 167.417969 115.046875 167.125 115.269531 Z M 165.664062 105.023438 C 165.664062 105.558594 166.003906 105.972656 166.515625 105.972656 C 167.050781 105.996094 167.5625 105.535156 167.5625 105.023438 C 167.5625 104.460938 167.125 104.097656 166.445312 104.074219 C 166.03125 104.023438 165.710938 104.4375 165.664062 105.023438 Z M 165.664062 105.023438 "/>
</g>
</svg>
